<?xml version="1.0" standalone="no"?>
<svg viewBox="0 0 200 200" xmlns="http://www.w3.org/2000/svg">
  <path fill="#000000" d="M30.7,-49.8C40.1,-41.7,48.2,-33.7,54.6,-23.8C61,-13.8,65.6,-1.9,65.4,10.4C65.1,22.6,60,35.1,51.1,42.9C42.2,50.7,29.4,53.8,16.6,58.3C3.8,62.8,-9.1,68.8,-22.6,68.6C-36.1,68.4,-50.2,62.1,-60.8,51.7C-71.4,41.3,-78.3,26.8,-78.1,12.7C-77.9,-1.4,-70.5,-15.1,-62.6,-26.9C-54.6,-38.6,-46,-48.4,-35.5,-56C-24.9,-63.6,-12.5,-69,-0.9,-67.6C10.6,-66.2,21.3,-57.9,30.7,-49.8Z" transform="translate(100 100)" />
</svg>
